<svg xmlns="http://www.w3.org/2000/svg" width="150.703" height="92.941" viewBox="0 0 150.703 92.941"><g transform="translate(-1.371 -0.049)"><path d="M18.692-2.683A7.592,7.592,0,0,1,15.353-.488a13.983,13.983,0,0,1-4.782.78,9.474,9.474,0,0,1-4.833-1.2A8.023,8.023,0,0,1,2.53-4.4a12.29,12.29,0,0,1-1.159-5.38v-1.443a13.052,13.052,0,0,1,1.072-5.5,7.928,7.928,0,0,1,3.091-3.558,8.9,8.9,0,0,1,4.731-1.232,8.867,8.867,0,0,1,5.905,1.8,7.7,7.7,0,0,1,2.522,5.242H14.435a4.233,4.233,0,0,0-1.29-2.668,4.121,4.121,0,0,0-2.748-.846A3.879,3.879,0,0,0,7-16.315a8.817,8.817,0,0,0-1.181,4.987v1.356A8.393,8.393,0,0,0,7.086-4.928,4.344,4.344,0,0,0,10.8-3.222a4.852,4.852,0,0,0,3.514-1.05v-3.66h-3.98v-3.222h8.355Zm10.862-8.982,4.418-9.565h4.782L31.785-7.7V0H27.338V-7.7L20.369-21.229h4.8Zm16.855-9.565,5.453,15.4,5.424-15.4h5.745V0H58.642V-5.8L59.08-15.82,53.35,0h-3L44.631-15.805l.437,10V0H40.694V-21.229ZM71.225-7.48V0H66.851V-21.229h8.282a9.582,9.582,0,0,1,4.206.875,6.447,6.447,0,0,1,2.792,2.486,6.932,6.932,0,0,1,.977,3.667A6.1,6.1,0,0,1,80.972-9.28a8.9,8.9,0,0,1-5.912,1.8Zm0-3.543h3.908a3.842,3.842,0,0,0,2.646-.817,2.97,2.97,0,0,0,.911-2.333,3.5,3.5,0,0,0-.919-2.522,3.431,3.431,0,0,0-2.537-.991h-4.01Zm32.325.889a12.815,12.815,0,0,1-1.108,5.5A8.345,8.345,0,0,1,99.271-.991,8.772,8.772,0,0,1,94.539.292,8.832,8.832,0,0,1,89.83-.977,8.427,8.427,0,0,1,86.622-4.6a12.449,12.449,0,0,1-1.152-5.417v-1.05a12.748,12.748,0,0,1,1.13-5.519,8.413,8.413,0,0,1,3.193-3.66,8.783,8.783,0,0,1,4.717-1.276,8.783,8.783,0,0,1,4.717,1.276,8.413,8.413,0,0,1,3.193,3.66,12.712,12.712,0,0,1,1.13,5.5ZM99.118-11.1a8.934,8.934,0,0,0-1.2-5.074A3.9,3.9,0,0,0,94.51-17.9a3.9,3.9,0,0,0-3.4,1.713,8.831,8.831,0,0,0-1.21,5.023v1.035a9.045,9.045,0,0,0,1.2,5.045A3.886,3.886,0,0,0,94.539-3.3a3.851,3.851,0,0,0,3.383-1.728,8.993,8.993,0,0,0,1.2-5.038ZM111.38,0h-4.374V-21.229h4.374ZM132.7,0h-4.374l-8.515-13.968V0h-4.374V-21.229h4.374l8.53,14v-14h4.36Zm19.377-17.686h-6.5V0H141.2V-17.686h-6.415v-3.543h17.292Z" transform="translate(0 92.698)" fill="#ee4d64"/><g transform="translate(26.128)"><g transform="translate(0.524)"><path d="M34.191,52.2a7.071,7.071,0,0,1-7.063-7.063v-9.7H2.012a2.011,2.011,0,1,1,0-4.022H29.139a2.013,2.013,0,0,1,2.011,2.011V45.133a3.04,3.04,0,1,0,6.08,0V7.063a3.04,3.04,0,1,0-6.08,0V18.771a2.011,2.011,0,1,1-4.023,0V7.063a7.062,7.062,0,0,1,14.106-.511,6.988,6.988,0,0,1,3.061-.7,7.073,7.073,0,0,1,7.048,6.619,6.99,6.99,0,0,1,3.056-.7,7.071,7.071,0,0,1,7.063,7.062V33.358A7.071,7.071,0,0,1,54.4,40.421a6.977,6.977,0,0,1-3.056-.7,7.073,7.073,0,0,1-7.048,6.619,6.987,6.987,0,0,1-3.061-.7A7.071,7.071,0,0,1,34.191,52.2Zm10.1-42.32a3.044,3.044,0,0,0-3.04,3.04V39.28a3.041,3.041,0,0,0,6.081,0V12.917A3.044,3.044,0,0,0,44.294,9.877ZM54.4,15.8a3.044,3.044,0,0,0-3.041,3.04V33.358a3.041,3.041,0,0,0,6.081,0V18.839A3.044,3.044,0,0,0,54.4,15.8Z" transform="translate(38.243 0.049)" fill="#ee4d64"/><path d="M27.271,52.2a7.071,7.071,0,0,1-7.042-6.552,6.99,6.99,0,0,1-3.062.7,7.074,7.074,0,0,1-7.048-6.619,6.976,6.976,0,0,1-3.055.7A7.071,7.071,0,0,1,0,33.358V18.84a7.071,7.071,0,0,1,7.063-7.063,6.987,6.987,0,0,1,3.055.7,7.075,7.075,0,0,1,7.048-6.619,6.989,6.989,0,0,1,3.062.7,7.062,7.062,0,0,1,14.106.511v9.7H59.45a2.012,2.012,0,1,1,0,4.023H32.323a2.014,2.014,0,0,1-2.011-2.012V7.063a3.041,3.041,0,0,0-6.081,0v38.07a3.041,3.041,0,1,0,6.081,0V33.425a2.012,2.012,0,0,1,4.023,0V45.133A7.071,7.071,0,0,1,27.271,52.2Zm-10.1-42.32a3.044,3.044,0,0,0-3.041,3.04V39.28a3.041,3.041,0,0,0,6.081,0V12.917A3.044,3.044,0,0,0,17.168,9.877ZM7.063,15.8a3.044,3.044,0,0,0-3.04,3.041V33.358a3.041,3.041,0,0,0,6.081,0V18.84A3.045,3.045,0,0,0,7.063,15.8Z" transform="translate(0.057 0.049)" fill="#ee4d64"/><path d="M0,2.011v.674a2.011,2.011,0,0,0,4.023,0V2.011A2.011,2.011,0,0,0,0,2.011Z" transform="translate(30.363 24.253)" fill="#ee4d64"/><path d="M4.023,2.686V2.011A2.011,2.011,0,0,0,0,2.011v.674a2.011,2.011,0,0,0,4.023,0Z" transform="translate(65.371 23.355)" fill="#ee4d64"/></g></g></g></svg>