<svg xmlns="http://www.w3.org/2000/svg" width="134.071" height="23.636" viewBox="0 0 134.071 23.636"><g transform="translate(-0.321 -0.022)"><path d="M9.39-1.348a3.814,3.814,0,0,1-1.677,1.1,7.024,7.024,0,0,1-2.4.392,4.759,4.759,0,0,1-2.428-.6A4.03,4.03,0,0,1,1.271-2.212a6.174,6.174,0,0,1-.582-2.7V-5.64A6.557,6.557,0,0,1,1.227-8.4,3.982,3.982,0,0,1,2.78-10.192a4.473,4.473,0,0,1,2.377-.619,4.454,4.454,0,0,1,2.966.9A3.866,3.866,0,0,1,9.39-7.273H7.251A2.126,2.126,0,0,0,6.6-8.613a2.07,2.07,0,0,0-1.381-.425A1.948,1.948,0,0,0,3.516-8.2a4.429,4.429,0,0,0-.593,2.5v.681A4.216,4.216,0,0,0,3.56-2.476a2.182,2.182,0,0,0,1.868.857,2.437,2.437,0,0,0,1.765-.527V-3.984h-2V-5.6h4.2Zm5.457-4.512,2.219-4.8h2.4l-3.5,6.8V0H13.733V-3.867l-3.5-6.8h2.41Zm8.467-4.8L26.052-2.93l2.725-7.734h2.886V0h-2.2V-2.915l.22-5.032L26.8,0H25.291L22.419-7.939l.22,5.024V0h-2.2V-10.664ZM35.779-3.757V0h-2.2V-10.664h4.16a4.813,4.813,0,0,1,2.113.439,3.238,3.238,0,0,1,1.4,1.249,3.482,3.482,0,0,1,.491,1.842,3.062,3.062,0,0,1-1.073,2.472,4.469,4.469,0,0,1-2.97.9Zm0-1.78h1.963a1.93,1.93,0,0,0,1.329-.41,1.492,1.492,0,0,0,.458-1.172,1.759,1.759,0,0,0-.461-1.267,1.724,1.724,0,0,0-1.274-.5H35.779Zm16.238.447a6.438,6.438,0,0,1-.557,2.761A4.192,4.192,0,0,1,49.867-.5,4.407,4.407,0,0,1,47.49.146a4.437,4.437,0,0,1-2.366-.637,4.233,4.233,0,0,1-1.611-1.82,6.253,6.253,0,0,1-.579-2.721v-.527A6.4,6.4,0,0,1,43.5-8.331a4.226,4.226,0,0,1,1.6-1.838,4.412,4.412,0,0,1,2.369-.641,4.412,4.412,0,0,1,2.369.641,4.226,4.226,0,0,1,1.6,1.838,6.386,6.386,0,0,1,.568,2.765ZM49.79-5.574a4.488,4.488,0,0,0-.6-2.549,1.957,1.957,0,0,0-1.714-.872,1.958,1.958,0,0,0-1.707.861,4.436,4.436,0,0,0-.608,2.523v.52a4.544,4.544,0,0,0,.6,2.534,1.952,1.952,0,0,0,1.729.9,1.935,1.935,0,0,0,1.7-.868,4.517,4.517,0,0,0,.6-2.531ZM55.95,0h-2.2V-10.664h2.2ZM66.658,0h-2.2L60.183-7.017V0h-2.2V-10.664h2.2l4.285,7.031v-7.031h2.19Zm9.734-8.884H73.125V0h-2.2V-8.884H67.705v-1.78h8.687Z" transform="translate(58 17)" fill="#ee4d64"/><g transform="translate(0.058)"><g transform="translate(0.237)"><path d="M15.483,23.636a3.2,3.2,0,0,1-3.2-3.2V16.047H.911a.911.911,0,1,1,0-1.822H13.195a.912.912,0,0,1,.911.911v5.3a1.377,1.377,0,0,0,2.754,0V3.2a1.377,1.377,0,1,0-2.754,0V8.5a.911.911,0,0,1-1.822,0V3.2a3.2,3.2,0,0,1,6.388-.231,3.164,3.164,0,0,1,1.386-.317,3.2,3.2,0,0,1,3.191,3,3.163,3.163,0,0,1,1.383-.315,3.2,3.2,0,0,1,3.2,3.2v6.575a3.2,3.2,0,0,1-3.2,3.2,3.15,3.15,0,0,1-1.383-.315,3.2,3.2,0,0,1-3.191,3,3.162,3.162,0,0,1-1.386-.316A3.21,3.21,0,0,1,15.483,23.636ZM20.058,4.472a1.379,1.379,0,0,0-1.377,1.377V17.787a1.377,1.377,0,0,0,2.754,0V5.849A1.379,1.379,0,0,0,20.058,4.472Zm4.575,2.682a1.379,1.379,0,0,0-1.377,1.377v6.575a1.377,1.377,0,0,0,2.754,0V8.531A1.379,1.379,0,0,0,24.633,7.154Z" transform="translate(17.318 0.022)" fill="#ee4d64"/><path d="M12.349,23.636A3.208,3.208,0,0,1,9.16,20.669a3.2,3.2,0,0,1-4.578-2.681A3.163,3.163,0,0,1,3.2,18.3a3.2,3.2,0,0,1-3.2-3.2V8.531a3.2,3.2,0,0,1,3.2-3.2,3.162,3.162,0,0,1,1.383.315,3.2,3.2,0,0,1,3.191-3,3.17,3.17,0,0,1,1.387.317,3.2,3.2,0,0,1,6.387.231V7.59H26.921a.911.911,0,1,1,0,1.822H14.637a.912.912,0,0,1-.911-.911V3.2a1.377,1.377,0,1,0-2.754,0v17.24a1.377,1.377,0,0,0,2.754,0v-5.3a.911.911,0,0,1,1.822,0v5.3A3.2,3.2,0,0,1,12.349,23.636ZM7.774,4.472A1.379,1.379,0,0,0,6.4,5.849V17.787a1.377,1.377,0,1,0,2.753,0V5.849A1.378,1.378,0,0,0,7.774,4.472ZM3.2,7.154A1.379,1.379,0,0,0,1.822,8.531v6.575a1.377,1.377,0,0,0,2.754,0V8.531A1.379,1.379,0,0,0,3.2,7.154Z" transform="translate(0.026 0.022)" fill="#ee4d64"/><path d="M0,.911v.305a.911.911,0,0,0,1.822,0V.911A.911.911,0,0,0,0,.911Z" transform="translate(13.749 10.983)" fill="#ee4d64"/><path d="M1.822,1.216V.911A.911.911,0,0,0,0,.911v.305a.911.911,0,0,0,1.822,0Z" transform="translate(29.602 10.576)" fill="#ee4d64"/></g></g></g></svg>